<svg width="1332" height="575" viewBox="0 0 1332 575" fill="none" xmlns="http://www.w3.org/2000/svg">
<path d="M626.302 382.937C615.778 393.894 599.84 402.275 577.832 402.275C555.825 402.275 540.203 393.894 529.679 382.937C514.372 366.826 510.548 346.188 510.548 318.469C510.548 291.07 514.372 270.444 529.679 254.333C540.203 243.375 555.825 234.995 577.832 234.995C599.84 234.995 615.778 243.375 626.302 254.333C641.609 270.444 645.433 291.082 645.433 318.469C645.433 346.2 641.609 366.826 626.302 382.937ZM601.746 276.118C595.688 270.314 587.398 267.264 577.832 267.264C568.267 267.264 560.292 270.314 554.235 276.118C544.354 285.586 543.079 301.779 543.079 318.576C543.079 335.372 544.354 351.566 554.235 361.034C560.292 366.838 568.267 370.195 577.832 370.195C587.398 370.195 595.688 366.838 601.746 361.034C611.627 351.566 612.901 335.372 612.901 318.576C612.901 301.779 611.627 285.586 601.746 276.118Z" fill="#36363B"/>
<path d="M626.302 382.937C615.778 393.894 599.84 402.275 577.832 402.275C555.825 402.275 540.203 393.894 529.679 382.937C514.372 366.826 510.548 346.188 510.548 318.469C510.548 291.07 514.372 270.444 529.679 254.333C540.203 243.375 555.825 234.995 577.832 234.995C599.84 234.995 615.778 243.375 626.302 254.333C641.609 270.444 645.433 291.082 645.433 318.469C645.433 346.2 641.609 366.826 626.302 382.937ZM601.746 276.118C595.688 270.314 587.398 267.264 577.832 267.264C568.267 267.264 560.292 270.314 554.235 276.118C544.354 285.586 543.079 301.779 543.079 318.576C543.079 335.372 544.354 351.566 554.235 361.034C560.292 366.838 568.267 370.195 577.832 370.195C587.398 370.195 595.688 366.838 601.746 361.034C611.627 351.566 612.901 335.372 612.901 318.576C612.901 301.779 611.627 285.586 601.746 276.118Z" fill="white"/>
<path d="M243.595 368.65C273.443 368.223 288.56 357.482 288.996 336.416C289.196 319.168 279.207 308.783 259.043 305.297C249.807 304.029 239.666 302.594 228.631 301.006C208.878 297.722 193.854 290.372 183.56 278.932C172.936 267.172 167.63 252.887 167.63 236.053C167.63 215.829 174.301 199.529 187.642 187.152C200.583 174.871 218.913 168.623 242.654 168.41C271.231 169.05 296.066 177.04 317.196 192.392L297.819 221.294C280.572 209.866 261.631 203.939 240.937 203.512C230.207 203.512 221.278 206.215 214.125 211.609C206.666 217.216 202.842 225.585 202.631 236.693C202.631 243.368 205.195 249.402 210.336 254.796C215.489 260.296 223.725 264.114 235.09 266.224C241.384 267.279 250.007 268.5 260.937 269.875C282.466 272.839 298.372 280.616 308.666 293.217C318.866 305.606 323.96 319.997 323.96 336.404C322.819 380.659 295.913 403.1 243.29 403.728C209.254 403.728 179.983 393.142 155.513 371.969L178.36 345.604C196.654 360.766 218.384 368.436 243.595 368.65Z" fill="#36363B"/>
<path d="M243.595 368.65C273.443 368.223 288.56 357.482 288.996 336.416C289.196 319.168 279.207 308.783 259.043 305.297C249.807 304.029 239.666 302.594 228.631 301.006C208.878 297.722 193.854 290.372 183.56 278.932C172.936 267.172 167.63 252.887 167.63 236.053C167.63 215.829 174.301 199.529 187.642 187.152C200.583 174.871 218.913 168.623 242.654 168.41C271.231 169.05 296.066 177.04 317.196 192.392L297.819 221.294C280.572 209.866 261.631 203.939 240.937 203.512C230.207 203.512 221.278 206.215 214.125 211.609C206.666 217.216 202.842 225.585 202.631 236.693C202.631 243.368 205.195 249.402 210.336 254.796C215.489 260.296 223.725 264.114 235.09 266.224C241.384 267.279 250.007 268.5 260.937 269.875C282.466 272.839 298.372 280.616 308.666 293.217C318.866 305.606 323.96 319.997 323.96 336.404C322.819 380.659 295.913 403.1 243.29 403.728C209.254 403.728 179.983 393.142 155.513 371.969L178.36 345.604C196.654 360.766 218.384 368.436 243.595 368.65Z" fill="white"/>
<path d="M350.19 236.988H383.107V254.45H383.743C394.566 241.433 408.755 234.913 426.296 234.913C439.837 234.913 452.237 239.738 463.472 249.364C474.602 259.109 480.437 273.394 480.967 292.243V401.805H448.025V303.671C448.025 292.136 444.978 283.34 438.896 277.306C432.908 271.165 425.178 268.095 415.719 268.095C406.284 268.095 398.496 271.165 392.413 277.306C386.201 283.34 383.107 292.124 383.107 303.671V401.805H350.19V236.988Z" fill="#36363B"/>
<path d="M350.19 236.988H383.107V254.45H383.743C394.566 241.433 408.755 234.913 426.296 234.913C439.837 234.913 452.237 239.738 463.472 249.364C474.602 259.109 480.437 273.394 480.967 292.243V401.805H448.025V303.671C448.025 292.136 444.978 283.34 438.896 277.306C432.908 271.165 425.178 268.095 415.719 268.095C406.284 268.095 398.496 271.165 392.413 277.306C386.201 283.34 383.107 292.124 383.107 303.671V401.805H350.19V236.988Z" fill="white"/>
<path d="M673.894 236.988H706.836V254.45H707.471C718.271 241.433 732.483 234.913 750.001 234.913C763.142 235.126 774.601 239.358 784.365 247.621L760.424 276.357C753.471 270.857 746.271 268.095 738.812 268.095C730.412 268.095 723.212 270.845 717.224 276.357C710.506 281.763 707.024 290.488 706.824 302.557V401.805H673.883V356.034V236.988H673.894Z" fill="#36363B"/>
<path d="M673.894 236.988H706.836V254.45H707.471C718.271 241.433 732.483 234.913 750.001 234.913C763.142 235.126 774.601 239.358 784.365 247.621L760.424 276.357C753.471 270.857 746.271 268.095 738.812 268.095C730.412 268.095 723.212 270.845 717.224 276.357C710.506 281.763 707.024 290.488 706.824 302.557V401.805H673.883V356.034V236.988H673.894Z" fill="white"/>
<path d="M796.473 170.294H829.426V314.318H830.061L892.932 236.977H932.321L875.909 301.29L940.05 401.807H898.767L855.261 324.798L829.426 354.328V401.807H796.473V170.294Z" fill="#36363B"/>
<path d="M796.473 170.294H829.426V314.318H830.061L892.932 236.977H932.321L875.909 301.29L940.05 401.807H898.767L855.261 324.798L829.426 354.328V401.807H796.473V170.294Z" fill="white"/>
<path d="M1125.08 172.286V325.829C1125.08 370.522 1101.47 372.656 1071.29 372.656L1071.42 372.668L1017.04 372.691C1005.58 372.691 996.347 369.194 989.3 362.212C981.747 355.336 977.959 345.271 977.959 332.041H1079.91V304.728C1079.69 283.033 1073.02 265.986 1059.9 253.598C1046.97 241.423 1031.17 235.235 1012.45 235.021C1004.69 235.021 996.806 236.456 988.818 239.313C980.724 242.17 973.418 246.829 966.935 253.29C960.524 259.644 955.265 268.321 951.159 279.335C947.076 290.134 945.018 303.684 945.018 319.985C945.018 336.925 947.371 350.689 952.123 361.275C956.406 372.288 962.041 380.859 968.959 387C972.535 389.964 976.359 392.453 980.477 394.457C984.359 396.792 988.359 398.642 992.441 400.017C1000.63 402.554 1009.05 403.834 1017.65 403.834H1071.27H1088.43C1136.03 403.834 1155.51 370.131 1155.51 338.467V152.132L1125.08 172.286ZM988.182 275.648C994.5 269.4 1002.58 266.282 1012.45 266.282C1022.35 266.282 1030.43 269.412 1036.72 275.648C1043.14 282.215 1046.56 291.901 1046.97 304.704H977.959C978.594 291.901 981.994 282.215 988.182 275.648Z" fill="#36363B"/>
<path d="M1125.08 172.286V325.829C1125.08 370.522 1101.47 372.656 1071.29 372.656L1071.42 372.668L1017.04 372.691C1005.58 372.691 996.347 369.194 989.3 362.212C981.747 355.336 977.959 345.271 977.959 332.041H1079.91V304.728C1079.69 283.033 1073.02 265.986 1059.9 253.598C1046.97 241.423 1031.17 235.235 1012.45 235.021C1004.69 235.021 996.806 236.456 988.818 239.313C980.724 242.17 973.418 246.829 966.935 253.29C960.524 259.644 955.265 268.321 951.159 279.335C947.076 290.134 945.018 303.684 945.018 319.985C945.018 336.925 947.371 350.689 952.123 361.275C956.406 372.288 962.041 380.859 968.959 387C972.535 389.964 976.359 392.453 980.477 394.457C984.359 396.792 988.359 398.642 992.441 400.017C1000.63 402.554 1009.05 403.834 1017.65 403.834H1071.27H1088.43C1136.03 403.834 1155.51 370.131 1155.51 338.467V152.132L1125.08 172.286ZM988.182 275.648C994.5 269.4 1002.58 266.282 1012.45 266.282C1022.35 266.282 1030.43 269.412 1036.72 275.648C1043.14 282.215 1046.56 291.901 1046.97 304.704H977.959C978.594 291.901 981.994 282.215 988.182 275.648Z" fill="white"/>
</svg>
