<svg width="1332" height="576" viewBox="0 0 1332 576" fill="none" xmlns="http://www.w3.org/2000/svg">
<path d="M626.302 385.489C615.778 396.53 599.84 404.974 577.832 404.974C555.825 404.974 540.203 396.53 529.679 385.489C514.372 369.256 510.548 348.461 510.548 320.533C510.548 292.926 514.372 272.143 529.679 255.91C540.203 244.869 555.825 236.425 577.832 236.425C599.84 236.425 615.778 244.869 626.302 255.91C641.609 272.143 645.433 292.938 645.433 320.533C645.433 348.473 641.609 369.256 626.302 385.489ZM601.746 277.86C595.688 272.012 587.398 268.939 577.832 268.939C568.267 268.939 560.292 272.012 554.235 277.86C544.354 287.399 543.079 303.716 543.079 320.64C543.079 337.564 544.354 353.88 554.235 363.42C560.292 369.268 568.267 372.65 577.832 372.65C587.398 372.65 595.688 369.268 601.746 363.42C611.627 353.88 612.901 337.564 612.901 320.64C612.901 303.716 611.627 287.399 601.746 277.86Z" fill="#36363B"/>
<path d="M626.302 385.489C615.778 396.53 599.84 404.974 577.832 404.974C555.825 404.974 540.203 396.53 529.679 385.489C514.372 369.256 510.548 348.461 510.548 320.533C510.548 292.926 514.372 272.143 529.679 255.91C540.203 244.869 555.825 236.425 577.832 236.425C599.84 236.425 615.778 244.869 626.302 255.91C641.609 272.143 645.433 292.938 645.433 320.533C645.433 348.473 641.609 369.256 626.302 385.489ZM601.746 277.86C595.688 272.012 587.398 268.939 577.832 268.939C568.267 268.939 560.292 272.012 554.235 277.86C544.354 287.399 543.079 303.716 543.079 320.64C543.079 337.564 544.354 353.88 554.235 363.42C560.292 369.268 568.267 372.65 577.832 372.65C587.398 372.65 595.688 369.268 601.746 363.42C611.627 353.88 612.901 337.564 612.901 320.64C612.901 303.716 611.627 287.399 601.746 277.86Z" fill="#2B2B2F"/>
<path d="M243.595 371.093C273.443 370.663 288.56 359.842 288.996 338.616C289.196 321.236 279.207 310.773 259.043 307.261C249.807 305.983 239.666 304.537 228.631 302.937C208.878 299.628 193.854 292.222 183.56 280.696C172.936 268.847 167.63 254.453 167.63 237.492C167.63 217.114 174.301 200.69 187.642 188.22C200.583 175.845 218.913 169.55 242.654 169.335C271.231 169.98 296.066 178.031 317.196 193.499L297.819 222.621C280.572 211.106 261.631 205.133 240.937 204.703C230.207 204.703 221.278 207.427 214.125 212.862C206.666 218.512 202.842 226.945 202.631 238.137C202.631 244.862 205.195 250.941 210.336 256.376C215.489 261.919 223.725 265.765 235.09 267.891C241.384 268.954 250.007 270.184 260.937 271.57C282.466 274.556 298.372 282.392 308.666 295.089C318.866 307.571 323.96 322.072 323.96 338.604C322.819 383.193 295.913 405.805 243.29 406.438C209.254 406.438 179.983 395.771 155.513 374.438L178.36 347.873C196.654 363.15 218.384 370.878 243.595 371.093Z" fill="#36363B"/>
<path d="M243.595 371.093C273.443 370.663 288.56 359.842 288.996 338.616C289.196 321.236 279.207 310.773 259.043 307.261C249.807 305.983 239.666 304.537 228.631 302.937C208.878 299.628 193.854 292.222 183.56 280.696C172.936 268.847 167.63 254.453 167.63 237.492C167.63 217.114 174.301 200.69 187.642 188.22C200.583 175.845 218.913 169.55 242.654 169.335C271.231 169.98 296.066 178.031 317.196 193.499L297.819 222.621C280.572 211.106 261.631 205.133 240.937 204.703C230.207 204.703 221.278 207.427 214.125 212.862C206.666 218.512 202.842 226.945 202.631 238.137C202.631 244.862 205.195 250.941 210.336 256.376C215.489 261.919 223.725 265.765 235.09 267.891C241.384 268.954 250.007 270.184 260.937 271.57C282.466 274.556 298.372 282.392 308.666 295.089C318.866 307.571 323.96 322.072 323.96 338.604C322.819 383.193 295.913 405.805 243.29 406.438C209.254 406.438 179.983 395.771 155.513 374.438L178.36 347.873C196.654 363.15 218.384 370.878 243.595 371.093Z" fill="#2B2B2F"/>
<path d="M350.19 238.433H383.107V256.028H383.743C394.566 242.912 408.755 236.343 426.296 236.343C439.837 236.343 452.237 241.204 463.472 250.903C474.602 260.722 480.437 275.115 480.967 294.107V404.5H448.025V305.622C448.025 294 444.978 285.137 438.896 279.057C432.908 272.87 425.178 269.776 415.719 269.776C406.284 269.776 398.496 272.87 392.413 279.057C386.202 285.137 383.107 293.988 383.107 305.622V404.5H350.19V238.433Z" fill="#36363B"/>
<path d="M350.19 238.433H383.107V256.028H383.743C394.566 242.912 408.755 236.343 426.296 236.343C439.837 236.343 452.237 241.204 463.472 250.903C474.602 260.722 480.437 275.115 480.967 294.107V404.5H448.025V305.622C448.025 294 444.978 285.137 438.896 279.057C432.908 272.87 425.178 269.776 415.719 269.776C406.284 269.776 398.496 272.87 392.413 279.057C386.202 285.137 383.107 293.988 383.107 305.622V404.5H350.19V238.433Z" fill="#2B2B2F"/>
<path d="M673.894 238.433H706.836V256.028H707.471C718.271 242.912 732.483 236.343 750.001 236.343C763.142 236.558 774.601 240.822 784.365 249.147L760.424 278.101C753.471 272.559 746.271 269.776 738.812 269.776C730.412 269.776 723.212 272.547 717.224 278.101C710.506 283.548 707.024 292.34 706.824 304.499V404.5H673.883V358.382V238.433H673.894Z" fill="#36363B"/>
<path d="M673.894 238.433H706.836V256.028H707.471C718.271 242.912 732.483 236.343 750.001 236.343C763.142 236.558 774.601 240.822 784.365 249.147L760.424 278.101C753.471 272.559 746.271 269.776 738.812 269.776C730.412 269.776 723.212 272.547 717.224 278.101C710.506 283.548 707.024 292.34 706.824 304.499V404.5H673.883V358.382V238.433H673.894Z" fill="#2B2B2F"/>
<path d="M796.473 171.234H829.426V316.35H830.061L892.932 238.423H932.32L875.908 303.223L940.05 404.502H898.767L855.261 326.909L829.426 356.664V404.502H796.473V171.234Z" fill="#36363B"/>
<path d="M796.473 171.234H829.426V316.35H830.061L892.932 238.423H932.32L875.908 303.223L940.05 404.502H898.767L855.261 326.909L829.426 356.664V404.502H796.473V171.234Z" fill="#2B2B2F"/>
<path d="M1125.08 173.24V327.948C1125.08 372.98 1101.47 375.13 1071.29 375.13L1071.42 375.142L1017.04 375.166C1005.58 375.166 996.347 371.642 989.3 364.607C981.747 357.679 977.959 347.538 977.959 334.207H1079.91V306.687C1079.69 284.828 1073.02 267.651 1059.9 255.169C1046.97 242.902 1031.17 236.667 1012.45 236.452C1004.69 236.452 996.806 237.897 988.818 240.776C980.724 243.654 973.418 248.349 966.935 254.859C960.523 261.261 955.265 270.004 951.159 281.101C947.076 291.983 945.018 305.636 945.018 322.06C945.018 339.129 947.37 352.996 952.123 363.663C956.406 374.76 962.041 383.396 968.959 389.583C972.535 392.569 976.359 395.078 980.477 397.096C984.359 399.449 988.359 401.313 992.441 402.698C1000.63 405.255 1009.05 406.545 1017.65 406.545H1071.27H1088.43C1136.03 406.545 1155.51 372.586 1155.51 340.681V152.934L1125.08 173.24ZM988.182 277.386C994.5 271.091 1002.58 267.95 1012.45 267.95C1022.35 267.95 1030.43 271.103 1036.72 277.386C1043.14 284.004 1046.56 293.763 1046.97 306.663H977.959C978.594 293.763 981.994 284.004 988.182 277.386Z" fill="#36363B"/>
<path d="M1125.08 173.24V327.948C1125.08 372.98 1101.47 375.13 1071.29 375.13L1071.42 375.142L1017.04 375.166C1005.58 375.166 996.347 371.642 989.3 364.607C981.747 357.679 977.959 347.538 977.959 334.207H1079.91V306.687C1079.69 284.828 1073.02 267.651 1059.9 255.169C1046.97 242.902 1031.17 236.667 1012.45 236.452C1004.69 236.452 996.806 237.897 988.818 240.776C980.724 243.654 973.418 248.349 966.935 254.859C960.523 261.261 955.265 270.004 951.159 281.101C947.076 291.983 945.018 305.636 945.018 322.06C945.018 339.129 947.37 352.996 952.123 363.663C956.406 374.76 962.041 383.396 968.959 389.583C972.535 392.569 976.359 395.078 980.477 397.096C984.359 399.449 988.359 401.313 992.441 402.698C1000.63 405.255 1009.05 406.545 1017.65 406.545H1071.27H1088.43C1136.03 406.545 1155.51 372.586 1155.51 340.681V152.934L1125.08 173.24ZM988.182 277.386C994.5 271.091 1002.58 267.95 1012.45 267.95C1022.35 267.95 1030.43 271.103 1036.72 277.386C1043.14 284.004 1046.56 293.763 1046.97 306.663H977.959C978.594 293.763 981.994 284.004 988.182 277.386Z" fill="#2B2B2F"/>
</svg>
